<svg width="40" height="40" viewBox="0 0 40 40" fill="none" xmlns="http://www.w3.org/2000/svg">
<path fill-rule="evenodd" clip-rule="evenodd" d="M18.4664 25.9C16.6998 25.9 15.6664 24.55 15.6664 22.5667C15.6664 18.6167 19.1831 17.9 22.5331 17.9C22.5331 20.8 22.4498 25.9 18.4664 25.9ZM27.1831 30.1667C27.0331 30.2959 26.8464 30.375 26.6491 30.393C26.4519 30.4109 26.254 30.3667 26.0831 30.2667C24.5498 29 24.2831 28.4 23.4331 27.1833C19.1998 32.55 8.93312 31.9167 8.93312 23.35C8.93312 15.6667 16.6831 14.1833 22.5164 14.2167C22.5164 14.2167 22.7331 11.3833 21.9664 10.2667C20.3498 7.83333 16.1998 9.26667 15.6664 11.8333C15.5831 12.25 15.2831 12.6667 14.8664 12.6833L10.3831 12.1833C10.0164 12.1167 9.58312 11.8167 9.69978 11.2333C10.7331 5.8 15.6331 4.16667 20.0331 4.16667C22.2664 4.16667 25.1331 4.83333 26.9664 6.46667C30.0498 9.16667 28.7331 17.9 28.9998 21.6C28.9998 23.7667 29.8998 24.7167 30.7498 25.8833C31.0498 26.3 31.0998 26.8 30.7331 27.1L27.1664 30.1667H27.1831ZM32.3831 33.0667C27.8996 35.4305 22.8381 36.4753 17.785 36.08C12.732 35.6848 7.89448 33.8656 3.83312 30.8333C3.41645 30.5333 3.13312 31.0667 3.46645 31.45C10.8331 40.05 24.1998 42.1833 32.8831 34.1167C33.4831 33.5667 32.9664 32.7333 32.3664 33.0667H32.3831ZM33.3498 36.3C33.2164 36.6333 33.5164 36.7667 33.8165 36.5167C35.7664 34.8833 36.2664 31.45 35.8664 30.95C35.4664 30.4667 32.0498 30.05 29.9664 31.5167C29.6331 31.7333 29.6998 32.05 30.0665 32.0167C31.2331 31.85 33.8498 31.55 34.3164 32.15C34.7831 32.75 33.7998 35.2 33.3498 36.3Z" fill="#0D0808"/>
</svg>
