<svg width="40" height="40" viewBox="0 0 40 40" fill="none" xmlns="http://www.w3.org/2000/svg">
<path d="M19.8831 8.62C24.1665 8.75333 27.7581 4.095 27.1565 0C23.1565 0.275 19.1148 4.47667 19.8831 8.62ZM33.4665 30.635C34.5498 28.99 34.9498 28.1533 35.7931 26.2883C29.6815 23.9783 28.6965 15.3367 34.7481 12.025C32.8981 9.72 30.3081 8.38833 27.8648 8.38833C24.6265 8.38833 23.2615 9.93 21.0165 9.93C18.7015 9.93 16.9415 8.395 14.1465 8.395C11.3965 8.395 8.46979 10.0667 6.62146 12.9167C4.00812 16.9333 4.45479 24.4833 8.68479 30.9267C10.1965 33.22 12.2165 35.81 14.8515 35.8333C15.9448 35.8433 16.6731 35.52 17.4615 35.17C19.8348 34.115 22.2531 34.0783 24.6231 35.1617C25.3898 35.5117 26.1015 35.8383 27.1831 35.8283C29.8248 35.8117 31.9581 32.94 33.4665 30.635Z" fill="#0D0808"/>
</svg>
