<svg width="40" height="40" viewBox="0 0 40 40" fill="none" xmlns="http://www.w3.org/2000/svg">
<path d="M2.16661 19.9C2.16661 19.9 2.99995 19.7667 3.33328 20.1167C3.68328 20.45 3.44995 21.2 2.99995 21.2167C2.54995 21.2167 2.13328 21.3 1.83328 21C1.75916 20.9129 1.70809 20.8085 1.68477 20.6965C1.66144 20.5846 1.6666 20.4685 1.69978 20.359C1.73295 20.2496 1.79308 20.1502 1.87464 20.07C1.9562 19.9898 2.0566 19.9313 2.16661 19.9ZM11.1666 24.8833C11.0742 24.8799 10.9859 24.8446 10.9166 24.7833C10.3166 23.9833 10.0999 21.1667 9.83328 21C9.54995 20.8333 8.53328 22.55 6.48328 22.3667C5.64995 22.3 4.26661 21.3667 4.26661 21.3667C4.31661 20.7333 4.31661 19.25 5.58328 19.7333C6.34995 20.0167 7.66661 20.8333 8.83328 19.3833C10.1166 17.7833 10.8333 18.25 11.2333 18.6C11.6666 18.9333 11.3833 20.7667 12.0166 20.25L15.1833 16.5833C15.1833 16.5833 17.1666 14.6333 17.4666 16.6833C17.7666 18.7667 19.0499 21.0833 19.3999 21C19.3999 21 23.7166 12.95 24.2833 12.4333C24.8499 11.9 26.7833 11.9833 26.6833 13.3C26.6833 13.3 25.7499 26.5667 26.5166 23.9333L31.2999 8.68333C31.5333 7.85 34.0166 8.56667 34.4166 8.96667C34.6999 9.4 34.8833 10.2 34.6999 11.6333L33.8833 22.4167L34.7833 20.9667C35.4166 20.1833 37.2333 19.8 38.1333 20.35C38.4666 20.85 38.2833 22.7333 38.2833 22.7333L35.7499 23.2333C35.2833 23.3 34.5666 26.3667 33.5499 26.0667C32.372 25.6111 31.2748 24.9696 30.2999 24.1667L30.3499 21.1167L26.2666 32.95C26.0666 33.2333 25.7666 33.4 25.3833 33.2833C24.3833 33 23.1499 31.65 23.1333 31.3167C23.0999 29.4167 22.7666 20.0833 22.7666 20.0833L18.5999 26.9833C18.2999 27.0667 17.7666 26.9333 17.6499 26.65L15.8333 21C15.6833 20.6667 15.4999 20.8 15.2999 21C14.4666 21.6667 12.7333 24.7333 11.1333 24.9L11.1666 24.8833Z" fill="#0D0808"/>
</svg>
