<svg width="20" height="21" viewBox="0 0 20 21" fill="none" xmlns="http://www.w3.org/2000/svg">
<path d="M-0.00999987 21V-1.43051e-06H10.25C12.89 -1.43051e-06 14.87 0.499999 16.19 1.5C17.53 2.5 18.2 3.82 18.2 5.46C18.2 6.56 17.93 7.52 17.39 8.34C16.85 9.14 16.11 9.76 15.17 10.2C14.23 10.64 13.15 10.86 11.93 10.86L12.5 9.63C13.82 9.63 14.99 9.85 16.01 10.29C17.03 10.71 17.82 11.34 18.38 12.18C18.96 13.02 19.25 14.05 19.25 15.27C19.25 17.07 18.54 18.48 17.12 19.5C15.7 20.5 13.61 21 10.85 21H-0.00999987ZM4.82 17.34H10.49C11.75 17.34 12.7 17.14 13.34 16.74C14 16.32 14.33 15.66 14.33 14.76C14.33 13.88 14 13.23 13.34 12.81C12.7 12.37 11.75 12.15 10.49 12.15H4.46V8.61H9.65C10.83 8.61 11.73 8.41 12.35 8.01C12.99 7.59 13.31 6.96 13.31 6.12C13.31 5.3 12.99 4.69 12.35 4.29C11.73 3.87 10.83 3.66 9.65 3.66H4.82V17.34Z" fill="#0D0808"/>
</svg>
