<svg width="40" height="40" viewBox="0 0 40 40" fill="none" xmlns="http://www.w3.org/2000/svg">
<path d="M38.3332 8.33333H30.3332V13H38.3332V8.33333ZM38.3332 14.8333H30.3332V19.3333H38.3332V15V14.8333ZM38.3332 21.1667H30.3332V25.8333H38.3332V21.1667ZM9.6665 27.6667H1.6665V32.3333H9.6665V27.6667ZM19.1665 27.6667H11.1665V32.3333H19.1665V27.6667ZM28.8332 27.6667H20.8332V32.3333H28.8332V27.6667ZM38.3332 27.6667H30.3332V32.3333H38.3332V27.6667ZM28.8332 21.1667H20.8332V25.8333H28.8332V21.1667ZM19.1665 21.1667H11.1665V25.8333H19.1665V21.1667ZM19.1665 14.8333H11.1665V19.3333H19.1665V15V14.8333Z" fill="#0D0808"/>
</svg>
