<svg width="40" height="40" viewBox="0 0 40 40" fill="none" xmlns="http://www.w3.org/2000/svg">
<path fill-rule="evenodd" clip-rule="evenodd" d="M3.3335 20C3.3335 15.5797 5.08944 11.3405 8.21505 8.21488C11.3407 5.08928 15.5799 3.33333 20.0002 3.33333C24.4204 3.33333 28.6597 5.08928 31.7853 8.21488C34.9109 11.3405 36.6668 15.5797 36.6668 20C36.6668 24.4203 34.9109 28.6595 31.7853 31.7851C28.6597 34.9107 24.4204 36.6667 20.0002 36.6667C15.5799 36.6667 11.3407 34.9107 8.21505 31.7851C5.08944 28.6595 3.3335 24.4203 3.3335 20ZM25.8335 27.3333C26.8335 28.1667 28.3335 26.3333 26.8335 25.3333C22.1238 22.8366 16.6363 22.2401 11.5002 23.6667C10.3335 23.8333 10.5002 25.8333 11.6668 25.8333C16.6668 25 21.0002 24.3333 25.8335 27.3333ZM27.5002 23.1667C21.6668 20 17.5002 20 11.3335 21.3333C9.66683 21.3333 9.66683 19.1667 11.0002 18.6667C13.9684 17.8316 17.0727 17.5931 20.1337 17.965C23.1947 18.3369 26.1516 19.3118 28.8335 20.8333C30.0002 21.6667 29.3335 23.8333 27.5002 23.1667ZM29.3335 18.1667C31.0002 19.3333 32.6668 16.5 31.0002 15.5C24.5563 12.0481 17.0131 11.2698 10.0002 13.3333C8.3335 14 9.16683 16.6667 10.5002 16.5C17.3335 14.8333 23.8335 14.8333 29.3335 18.1667Z" fill="#0D0808"/>
</svg>
