<svg width="40" height="40" viewBox="0 0 40 40" fill="none" xmlns="http://www.w3.org/2000/svg">
<path d="M15 25L25 15M18.3333 9.99993L19.105 9.10659C19.8789 8.33254 20.7976 7.71851 21.8088 7.29959C22.82 6.88066 23.9038 6.66504 24.9983 6.66504C26.0929 6.66504 27.1767 6.88066 28.1879 7.29959C29.1991 7.71851 30.1178 8.33254 30.8917 9.10659C31.667 9.87977 32.2821 10.7984 32.7018 11.8097C33.1214 12.8211 33.3374 13.9053 33.3372 15.0003C33.3371 16.0952 33.1208 17.1794 32.7009 18.1906C32.2809 19.2019 31.6656 20.1203 30.89 20.8933M21.005 30.89C19.4233 32.4528 17.2894 33.3293 15.0658 33.3293C12.8423 33.3293 10.7083 32.4528 9.12665 30.89C8.34724 30.1193 7.72847 29.2017 7.30617 28.1902C6.88386 27.1788 6.66641 26.0936 6.66641 24.9975C6.66641 23.9014 6.88386 22.8162 7.30617 21.8048C7.72847 20.7933 8.34724 19.8757 9.12665 19.105L9.99998 18.3333M26.6667 31.6667H36.6667M31.6667 26.6667V36.6667" stroke="#0D0808" stroke-width="2" stroke-linecap="round" stroke-linejoin="round"/>
</svg>
