<svg width="50" height="50" viewBox="0 0 50 50" fill="none" xmlns="http://www.w3.org/2000/svg">
<path d="M37.5 39.5833L40.8167 36.2667C42.6995 34.3835 43.7573 31.8296 43.7573 29.1667C43.7573 26.5037 42.6995 23.9498 40.8167 22.0667L31.25 12.5M14.5833 20.8333H14.5625M6.25 16.6667V25.3583C6.25024 26.4633 6.68938 27.5229 7.47083 28.3042L19.3667 40.2C20.3082 41.1414 21.5852 41.6703 22.9167 41.6703C24.2481 41.6703 25.5251 41.1414 26.4667 40.2L33.95 32.7167C34.8914 31.7751 35.4203 30.4981 35.4203 29.1667C35.4203 27.8352 34.8914 26.5582 33.95 25.6167L22.0542 13.7208C21.2729 12.9394 20.2133 12.5002 19.1083 12.5H10.4167C9.3116 12.5 8.25179 12.939 7.47039 13.7204C6.68899 14.5018 6.25 15.5616 6.25 16.6667Z" stroke="#0D0808" stroke-width="2" stroke-linecap="round" stroke-linejoin="round"/>
</svg>
