<svg width="55" height="56" viewBox="0 0 55 56" fill="none" xmlns="http://www.w3.org/2000/svg">
<path d="M23.6615 10.3931C24.6377 6.36896 30.3623 6.36896 31.3385 10.3931C31.485 10.9977 31.7722 11.5591 32.1766 12.0317C32.5811 12.5043 33.0914 12.8747 33.6661 13.1128C34.2407 13.3508 34.8635 13.4499 35.4837 13.4018C36.1038 13.3537 36.7039 13.1599 37.235 12.836C40.771 10.6819 44.8204 14.729 42.6663 18.2673C42.3429 18.7982 42.1494 19.3979 42.1014 20.0176C42.0534 20.6374 42.1524 21.2597 42.3902 21.834C42.628 22.4083 42.9979 22.9184 43.47 23.3228C43.9421 23.7272 44.5029 24.0146 45.1069 24.1615C49.131 25.1377 49.131 30.8623 45.1069 31.8385C44.5023 31.985 43.9409 32.2722 43.4683 32.6766C42.9957 33.0811 42.6253 33.5914 42.3872 34.1661C42.1492 34.7407 42.0501 35.3635 42.0982 35.9837C42.1463 36.6038 42.3401 37.2039 42.664 37.735C44.8181 41.271 40.771 45.3204 37.2327 43.1663C36.7018 42.8429 36.1021 42.6494 35.4824 42.6014C34.8626 42.5534 34.2403 42.6524 33.666 42.8902C33.0917 43.128 32.5816 43.4979 32.1772 43.97C31.7728 44.4421 31.4854 45.0029 31.3385 45.6069C30.3623 49.631 24.6377 49.631 23.6615 45.6069C23.515 45.0023 23.2278 44.4409 22.8234 43.9683C22.4189 43.4957 21.9086 43.1253 21.3339 42.8872C20.7593 42.6492 20.1365 42.5501 19.5163 42.5982C18.8962 42.6463 18.2961 42.8401 17.765 43.164C14.229 45.3181 10.1796 41.271 12.3338 37.7327C12.6571 37.2018 12.8506 36.6021 12.8986 35.9824C12.9466 35.3626 12.8476 34.7403 12.6098 34.166C12.372 33.5917 12.0021 33.0816 11.53 32.6772C11.0579 32.2728 10.4971 31.9854 9.89313 31.8385C5.86896 30.8623 5.86896 25.1377 9.89313 24.1615C10.4977 24.015 11.0591 23.7278 11.5317 23.3234C12.0043 22.9189 12.3747 22.4086 12.6128 21.8339C12.8508 21.2593 12.9499 20.6365 12.9018 20.0163C12.8537 19.3962 12.6599 18.7961 12.336 18.265C10.1819 14.729 14.229 10.6796 17.7673 12.8338C20.059 14.2271 23.029 12.9942 23.6615 10.3931Z" stroke="#0D0808" stroke-width="3" stroke-linecap="round" stroke-linejoin="round"/>
<path d="M20.625 28C20.625 29.8234 21.3493 31.572 22.6386 32.8614C23.928 34.1507 25.6766 34.875 27.5 34.875C29.3234 34.875 31.072 34.1507 32.3614 32.8614C33.6507 31.572 34.375 29.8234 34.375 28C34.375 26.1766 33.6507 24.428 32.3614 23.1386C31.072 21.8493 29.3234 21.125 27.5 21.125C25.6766 21.125 23.928 21.8493 22.6386 23.1386C21.3493 24.428 20.625 26.1766 20.625 28Z" stroke="#0D0808" stroke-width="3" stroke-linecap="round" stroke-linejoin="round"/>
</svg>
