<svg width="29" height="29" viewBox="0 0 29 29" fill="none" xmlns="http://www.w3.org/2000/svg">
<path d="M19.7498 9.24999V9.26166M5.1665 9.83332C5.1665 8.59565 5.65817 7.40866 6.53334 6.53349C7.40851 5.65832 8.59549 5.16666 9.83317 5.16666H19.1665C20.4042 5.16666 21.5912 5.65832 22.4663 6.53349C23.3415 7.40866 23.8332 8.59565 23.8332 9.83332V19.1667C23.8332 20.4043 23.3415 21.5913 22.4663 22.4665C21.5912 23.3417 20.4042 23.8333 19.1665 23.8333H9.83317C8.59549 23.8333 7.40851 23.3417 6.53334 22.4665C5.65817 21.5913 5.1665 20.4043 5.1665 19.1667V9.83332ZM10.9998 14.5C10.9998 15.4282 11.3686 16.3185 12.025 16.9749C12.6813 17.6312 13.5716 18 14.4998 18C15.4281 18 16.3183 17.6312 16.9747 16.9749C17.6311 16.3185 17.9998 15.4282 17.9998 14.5C17.9998 13.5717 17.6311 12.6815 16.9747 12.0251C16.3183 11.3687 15.4281 11 14.4998 11C13.5716 11 12.6813 11.3687 12.025 12.0251C11.3686 12.6815 10.9998 13.5717 10.9998 14.5Z" stroke="#0D0808" stroke-width="2" stroke-linecap="round" stroke-linejoin="round"/>
</svg>
