<svg width="35" height="36" viewBox="0 0 35 36" fill="none" xmlns="http://www.w3.org/2000/svg">
<path d="M30.625 31.125L21.875 22.375M4.375 15.0833C4.375 16.4239 4.63905 17.7514 5.15206 18.9899C5.66508 20.2284 6.41702 21.3538 7.36495 22.3017C8.31288 23.2496 9.43824 24.0016 10.6768 24.5146C11.9153 25.0276 13.2428 25.2917 14.5833 25.2917C15.9239 25.2917 17.2514 25.0276 18.4899 24.5146C19.7284 24.0016 20.8538 23.2496 21.8017 22.3017C22.7496 21.3538 23.5016 20.2284 24.0146 18.9899C24.5276 17.7514 24.7917 16.4239 24.7917 15.0833C24.7917 13.7428 24.5276 12.4153 24.0146 11.1768C23.5016 9.93824 22.7496 8.81288 21.8017 7.86495C20.8538 6.91702 19.7284 6.16508 18.4899 5.65206C17.2514 5.13905 15.9239 4.875 14.5833 4.875C13.2428 4.875 11.9153 5.13905 10.6768 5.65206C9.43824 6.16508 8.31288 6.91702 7.36495 7.86495C6.41702 8.81288 5.66508 9.93824 5.15206 11.1768C4.63905 12.4153 4.375 13.7428 4.375 15.0833Z" stroke="#0D0808" stroke-width="2" stroke-linecap="round" stroke-linejoin="round"/>
</svg>
