<svg width="40" height="40" viewBox="0 0 40 40" fill="none" xmlns="http://www.w3.org/2000/svg">
<path d="M15 25L25 15M18.3333 9.99986L19.105 9.10653C20.668 7.54374 22.7878 6.66586 24.9981 6.66602C27.2084 6.66617 29.328 7.54435 30.8908 9.10736C32.4536 10.6704 33.3315 12.7902 33.3313 15.0004C33.3312 17.2107 32.453 19.3304 30.89 20.8932L30 21.6665M21.6666 30L21.005 30.89C19.4237 32.4536 17.2896 33.3306 15.0658 33.3306C12.842 33.3306 10.7079 32.4536 9.12665 30.89C8.34724 30.1193 7.72847 29.2017 7.30617 28.1902C6.88386 27.1787 6.66641 26.0935 6.66641 24.9975C6.66641 23.9014 6.88386 22.8162 7.30617 21.8047C7.72847 20.7933 8.34724 19.8756 9.12665 19.105L9.99998 18.3333" stroke="#0D0808" stroke-width="2" stroke-linecap="round" stroke-linejoin="round"/>
</svg>
