<svg width="30" height="30" viewBox="0 0 30 30" fill="none" xmlns="http://www.w3.org/2000/svg">
<path d="M8.75 8.75003H7.5C6.83696 8.75003 6.20107 9.01342 5.73223 9.48226C5.26339 9.9511 5 10.587 5 11.25V22.5C5 23.1631 5.26339 23.799 5.73223 24.2678C6.20107 24.7366 6.83696 25 7.5 25H18.75C19.413 25 20.0489 24.7366 20.5178 24.2678C20.9866 23.799 21.25 23.1631 21.25 22.5V21.25M20 6.25003L23.75 10M25.4813 8.23126C25.9736 7.73895 26.2501 7.07124 26.2501 6.37501C26.2501 5.67878 25.9736 5.01107 25.4813 4.51876C24.9889 4.02645 24.3212 3.74988 23.625 3.74988C22.9288 3.74988 22.2611 4.02645 21.7688 4.51876L11.25 15V18.75H15L25.4813 8.23126Z" stroke="#3A87FB" stroke-width="2" stroke-linecap="round" stroke-linejoin="round"/>
</svg>
