<svg width="80" height="80" viewBox="0 0 80 80" fill="none" xmlns="http://www.w3.org/2000/svg">
<path d="M20 70V63.3333C20 59.7971 21.4048 56.4057 23.9052 53.9052C26.4057 51.4048 29.7971 50 33.3333 50H46.6667C50.2029 50 53.5943 51.4048 56.0948 53.9052C58.5952 56.4057 60 59.7971 60 63.3333V70M26.6667 23.3333C26.6667 26.8696 28.0714 30.2609 30.5719 32.7614C33.0724 35.2619 36.4638 36.6667 40 36.6667C43.5362 36.6667 46.9276 35.2619 49.4281 32.7614C51.9286 30.2609 53.3333 26.8696 53.3333 23.3333C53.3333 19.7971 51.9286 16.4057 49.4281 13.9052C46.9276 11.4048 43.5362 10 40 10C36.4638 10 33.0724 11.4048 30.5719 13.9052C28.0714 16.4057 26.6667 19.7971 26.6667 23.3333Z" stroke="#0D0808" stroke-width="2" stroke-linecap="round" stroke-linejoin="round"/>
</svg>
