<svg width="28" height="28" viewBox="0 0 28 28" fill="none" xmlns="http://www.w3.org/2000/svg">
<path d="M19.2498 8.74999V8.76166M4.6665 9.33332C4.6665 8.09565 5.15817 6.90866 6.03334 6.03349C6.90851 5.15832 8.09549 4.66666 9.33317 4.66666H18.6665C19.9042 4.66666 21.0912 5.15832 21.9663 6.03349C22.8415 6.90866 23.3332 8.09565 23.3332 9.33332V18.6667C23.3332 19.9043 22.8415 21.0913 21.9663 21.9665C21.0912 22.8417 19.9042 23.3333 18.6665 23.3333H9.33317C8.09549 23.3333 6.90851 22.8417 6.03334 21.9665C5.15817 21.0913 4.6665 19.9043 4.6665 18.6667V9.33332ZM10.4998 14C10.4998 14.9282 10.8686 15.8185 11.525 16.4749C12.1813 17.1312 13.0716 17.5 13.9998 17.5C14.9281 17.5 15.8183 17.1312 16.4747 16.4749C17.1311 15.8185 17.4998 14.9282 17.4998 14C17.4998 13.0717 17.1311 12.1815 16.4747 11.5251C15.8183 10.8687 14.9281 10.5 13.9998 10.5C13.0716 10.5 12.1813 10.8687 11.525 11.5251C10.8686 12.1815 10.4998 13.0717 10.4998 14Z" stroke="url(#paint0_linear_112_567)" stroke-width="2" stroke-linecap="round" stroke-linejoin="round"/>
<defs>
<linearGradient id="paint0_linear_112_567" x1="2.9865" y1="3.35999" x2="22.3998" y2="22.2133" gradientUnits="userSpaceOnUse">
<stop stop-color="#C2A90A" stop-opacity="0"/>
<stop offset="0.0001" stop-color="#ACBF0F" stop-opacity="0.85"/>
<stop offset="0.84375" stop-color="#098000" stop-opacity="0.84"/>
</linearGradient>
</defs>
</svg>
