<svg width="40" height="40" viewBox="0 0 40 40" fill="none" xmlns="http://www.w3.org/2000/svg">
<path d="M28.3333 28.3333C28.3333 28.9899 28.204 29.6401 27.9527 30.2467C27.7015 30.8533 27.3332 31.4045 26.8689 31.8688C26.4046 32.3331 25.8534 32.7014 25.2468 32.9527C24.6401 33.204 23.9899 33.3333 23.3333 33.3333C22.6767 33.3333 22.0265 33.204 21.4199 32.9527C20.8133 32.7014 20.2621 32.3331 19.7978 31.8688C19.3335 31.4045 18.9652 30.8533 18.7139 30.2467C18.4627 29.6401 18.3333 28.9899 18.3333 28.3333C18.3333 27.6767 18.4627 27.0265 18.7139 26.4199C18.9652 25.8132 19.3335 25.2621 19.7978 24.7978C20.2621 24.3335 20.8133 23.9652 21.4199 23.7139C22.0265 23.4626 22.6767 23.3333 23.3333 23.3333C23.9899 23.3333 24.6401 23.4626 25.2468 23.7139C25.8534 23.9652 26.4046 24.3335 26.8689 24.7978C27.3332 25.2621 27.7015 25.8132 27.9527 26.4199C28.204 27.0265 28.3333 27.6767 28.3333 28.3333ZM28.3333 28.3333V6.66663H35M21.6667 8.33329H5M5 15H21.6667M15 21.6666H5" stroke="#0D0808" stroke-width="2" stroke-linecap="round" stroke-linejoin="round"/>
</svg>
