<svg width="40" height="40" viewBox="0 0 40 40" fill="none" xmlns="http://www.w3.org/2000/svg">
<g clip-path="url(#clip0_367_11)">
<path d="M15 25L25 15M18.3333 9.99986L19.105 9.10653C20.668 7.54374 22.7878 6.66586 24.9981 6.66602C27.2083 6.66617 29.328 7.54435 30.8908 9.10736C32.4536 10.6704 33.3315 12.7902 33.3313 15.0004C33.3312 17.2107 32.453 19.3304 30.89 20.8932L30 21.6665M21.6667 30L21.005 30.89C19.4238 32.4536 17.2897 33.3306 15.0658 33.3306C12.842 33.3306 10.7079 32.4536 9.12668 30.89C8.34727 30.1193 7.7285 29.2017 7.3062 28.1902C6.88389 27.1787 6.66644 26.0935 6.66644 24.9975C6.66644 23.9014 6.88389 22.8162 7.3062 21.8047C7.7285 20.7933 8.34727 19.8756 9.12668 19.105L10 18.3333" stroke="black" stroke-width="2" stroke-linecap="round" stroke-linejoin="round"/>
<path d="M31.335 26.5L27.5 30.335L31.335 34.17M35.1734 26.5L39.0083 30.335L35.1734 34.17" stroke="black" stroke-width="2" stroke-linecap="round" stroke-linejoin="round"/>
</g>
<defs>
<clipPath id="clip0_367_11">
<rect width="40" height="40" fill="white"/>
</clipPath>
</defs>
</svg>
