<svg width="29" height="29" viewBox="0 0 29 29" fill="none" xmlns="http://www.w3.org/2000/svg">
<path d="M2.8335 9.83341C2.8335 8.59574 3.32516 7.40875 4.20033 6.53358C5.0755 5.65841 6.26249 5.16675 7.50016 5.16675H21.5002C22.7378 5.16675 23.9248 5.65841 24.8 6.53358C25.6752 7.40875 26.1668 8.59574 26.1668 9.83341V19.1667C26.1668 20.4044 25.6752 21.5914 24.8 22.4666C23.9248 23.3417 22.7378 23.8334 21.5002 23.8334H7.50016C6.26249 23.8334 5.0755 23.3417 4.20033 22.4666C3.32516 21.5914 2.8335 20.4044 2.8335 19.1667V9.83341Z" stroke="#0D0808" stroke-width="2" stroke-linecap="round" stroke-linejoin="round"/>
<path d="M12.1668 11.0001L18.0002 14.5001L12.1668 18.0001V11.0001Z" stroke="#0D0808" stroke-width="2" stroke-linecap="round" stroke-linejoin="round"/>
</svg>
