<svg width="24" height="27" viewBox="0 0 24 27" fill="none" xmlns="http://www.w3.org/2000/svg">
<path d="M11.88 21.18C9.2 21.18 7.09 20.41 5.55 18.87C4.01 17.33 3.24 15.05 3.24 12.03V-1.43051e-06H5.46V11.94C5.46 14.42 6.02 16.25 7.14 17.43C8.26 18.61 9.84 19.2 11.88 19.2C13.94 19.2 15.53 18.61 16.65 17.43C17.77 16.25 18.33 14.42 18.33 11.94V-1.43051e-06H20.49V12.03C20.49 15.05 19.72 17.33 18.18 18.87C16.66 20.41 14.56 21.18 11.88 21.18Z" fill="#0D0808"/>
<path d="M0 24.75H23.76V26.25H0V24.75Z" fill="#0D0808"/>
</svg>
