<svg width="40" height="40" viewBox="0 0 40 40" fill="none" xmlns="http://www.w3.org/2000/svg">
<path fill-rule="evenodd" clip-rule="evenodd" d="M19.9999 12.05C22.1106 12.0522 24.1339 12.8928 25.6248 14.3868C27.1157 15.8809 27.9521 17.906 27.9499 20.0167C27.9477 22.1273 27.1071 24.1507 25.613 25.6416C24.119 27.1325 22.0939 27.9689 19.9832 27.9667C17.8725 27.9645 15.8492 27.1239 14.3583 25.6298C12.8673 24.1358 12.031 22.1107 12.0332 20C12.0354 17.8893 12.876 15.866 14.37 14.375C15.8641 12.8841 17.8892 12.0478 19.9999 12.05ZM16.9665 24.3667L24.3499 19.8167L16.9665 15.65V24.3667Z" fill="#0D0808"/>
<path fill-rule="evenodd" clip-rule="evenodd" d="M36.6668 20C36.6668 24.4203 34.9109 28.6595 31.7853 31.7851C28.6597 34.9107 24.4204 36.6667 20.0002 36.6667C15.5799 36.6667 11.3407 34.9107 8.21505 31.7851C5.08944 28.6595 3.3335 24.4203 3.3335 20C3.3335 15.5797 5.08944 11.3405 8.21505 8.21489C11.3407 5.08928 15.5799 3.33333 20.0002 3.33333C24.4204 3.33333 28.6597 5.08928 31.7853 8.21489C34.9109 11.3405 36.6668 15.5797 36.6668 20ZM20.0002 11.2833C17.6884 11.2833 15.4712 12.2017 13.8365 13.8364C12.2019 15.4711 11.2835 17.6882 11.2835 20C11.2835 22.3118 12.2019 24.5289 13.8365 26.1636C15.4712 27.7983 17.6884 28.7167 20.0002 28.7167C22.312 28.7167 24.5291 27.7983 26.1638 26.1636C27.7985 24.5289 28.7168 22.3118 28.7168 20C28.7168 17.6882 27.7985 15.4711 26.1638 13.8364C24.5291 12.2017 22.312 11.2833 20.0002 11.2833Z" fill="#0D0808"/>
</svg>
