<svg width="40" height="40" viewBox="0 0 40 40" fill="none" xmlns="http://www.w3.org/2000/svg">
<path d="M16.2498 26.1167V15.55L25.8332 20.8333L16.2498 26.1167ZM37.5665 12.2333C37.1498 10.7 35.8998 9.48334 34.3332 9.06667C31.4665 8.33334 19.9998 8.33334 19.9998 8.33334C19.9998 8.33334 8.53317 8.33334 5.6665 9.08334C4.89588 9.27853 4.19072 9.67439 3.62278 10.2306C3.05484 10.7869 2.64438 11.4836 2.43317 12.25C1.6665 15 1.6665 20.8333 1.6665 20.8333C1.6665 20.8333 1.6665 26.65 2.43317 29.4333C2.84984 30.9667 4.09984 32.1833 5.6665 32.6C8.53317 33.3333 19.9998 33.3333 19.9998 33.3333C19.9998 33.3333 31.4665 33.3333 34.3332 32.5833C35.1038 32.3881 35.809 31.9923 36.3769 31.4361C36.9448 30.8798 37.3553 30.1831 37.5665 29.4167C38.3332 26.6667 38.3332 20.8333 38.3332 20.8333C38.3332 20.8333 38.3332 15.0167 37.5665 12.2333Z" fill="#0D0808"/>
</svg>
